<svg width="13" height="15" viewBox="0 0 13 15" fill="none" xmlns="http://www.w3.org/2000/svg">
<path d="M12.38 11.1595C12.3204 10.8414 12.0143 10.6319 11.6962 10.6915C11.3781 10.7511 11.1686 11.0573 11.2281 11.3753C11.2724 11.6113 11.1686 11.7795 11.1029 11.8587C11.0373 11.9377 10.8915 12.0703 10.6523 12.0703H1.75802C1.51881 12.0703 1.37303 11.9377 1.30744 11.8587C1.24169 11.7795 1.13795 11.6113 1.18219 11.3753C1.34839 10.4884 1.68188 9.9051 2.00438 9.34096C2.39605 8.65588 2.80105 7.94745 2.80105 6.85544V5.97653C2.80105 4.12887 4.30289 2.60528 6.14974 2.57848H6.26051C8.10112 2.60522 9.59795 4.12881 9.59795 5.97656V6.85547C9.59795 7.78485 9.90197 8.42438 10.1869 8.95087C10.293 9.14681 10.4946 9.25802 10.7027 9.25802C10.7969 9.25802 10.8925 9.23525 10.9811 9.18727C11.2657 9.03325 11.3716 8.67765 11.2175 8.39309C10.934 7.8692 10.7698 7.44964 10.7698 6.85547V5.97656C10.7698 4.77067 10.3027 3.63173 9.45457 2.76955C8.72772 2.03065 7.79441 1.56955 6.78545 1.44229V0.585938C6.78545 0.262324 6.52313 0 6.19952 0C5.8759 0 5.61358 0.262324 5.61358 0.585938V1.44401C3.3736 1.73464 1.6292 3.66741 1.6292 5.97656V6.85547C1.6292 7.63614 1.34582 8.13182 0.987046 8.75936C0.633608 9.37764 0.232973 10.0784 0.0303561 11.1595C-0.0663529 11.6756 0.0704635 12.2032 0.405737 12.6071C0.740688 13.0107 1.23361 13.2422 1.75802 13.2422H4.45301C4.45301 14.2114 5.24157 15 6.21082 15C7.18008 15 7.96864 14.2114 7.96864 13.2422H10.6523C11.1767 13.2422 11.6697 13.0107 12.0046 12.6071C12.3399 12.2032 12.4767 11.6756 12.38 11.1595ZM6.21082 13.8281C5.88774 13.8281 5.62489 13.5653 5.62489 13.2422H6.79676C6.79676 13.5653 6.53394 13.8281 6.21082 13.8281Z" fill="white"/>
</svg>
