<svg width="15" height="16" viewBox="0 0 15 16" fill="none" xmlns="http://www.w3.org/2000/svg">
<g clip-path="url(#clip0)">
<path d="M13.9453 4.01574H8.37891V0.792969C8.37891 0.631191 8.24774 0.5 8.08594 0.5H1.05469C0.892881 0.5 0.761719 0.631191 0.761719 0.792969V15.207C0.761719 15.3688 0.892881 15.5 1.05469 15.5H8.08594H13.9453C14.1071 15.5 14.2383 15.3688 14.2383 15.207V4.30871C14.2383 4.1469 14.1071 4.01574 13.9453 4.01574ZM8.37891 4.60168H13.6523V11.9843H8.37891V4.60168ZM3.69141 14.914V12.5703H5.44922V14.914H3.69141ZM5.74219 11.9843H3.39844C3.23663 11.9843 3.10547 12.1155 3.10547 12.2773V14.914H1.34766V1.08594H7.79297V14.914H6.03516V12.2773C6.03516 12.1155 5.90396 11.9843 5.74219 11.9843ZM8.37888 14.914V12.5703H13.6523V14.914H8.37888Z" fill="black"/>
<path d="M4.27734 2.84378H4.86319C5.025 2.84378 5.15616 2.71262 5.15616 2.55081V1.96487C5.15616 1.80307 5.025 1.67191 4.86319 1.67191H4.27734C4.11554 1.67191 3.98438 1.80307 3.98438 1.96487V2.55081C3.98438 2.71262 4.11554 2.84378 4.27734 2.84378Z" fill="black"/>
<path d="M4.27734 4.89456H4.86319C5.025 4.89456 5.15616 4.7634 5.15616 4.60159V4.01566C5.15616 3.85385 5.025 3.72269 4.86319 3.72269H4.27734C4.11554 3.72269 3.98438 3.85385 3.98438 4.01566V4.60159C3.98438 4.7634 4.11554 4.89456 4.27734 4.89456Z" fill="black"/>
<path d="M4.27734 6.94534H4.86319C5.025 6.94534 5.15616 6.81418 5.15616 6.65237V6.06644C5.15616 5.90463 5.025 5.77347 4.86319 5.77347H4.27734C4.11554 5.77347 3.98438 5.90463 3.98438 6.06644V6.65237C3.98438 6.81418 4.11554 6.94534 4.27734 6.94534Z" fill="black"/>
<path d="M4.27734 8.99609H4.86319C5.025 8.99609 5.15616 8.86493 5.15616 8.70312V8.11719C5.15616 7.95538 5.025 7.82422 4.86319 7.82422H4.27734C4.11554 7.82422 3.98438 7.95538 3.98438 8.11719V8.70312C3.98438 8.86493 4.11554 8.99609 4.27734 8.99609Z" fill="black"/>
<path d="M4.27734 11.0469H4.86319C5.025 11.0469 5.15616 10.9157 5.15616 10.7539V10.168C5.15616 10.0062 5.025 9.875 4.86319 9.875H4.27734C4.11554 9.875 3.98438 10.0062 3.98438 10.168V10.7539C3.98438 10.9157 4.11554 11.0469 4.27734 11.0469Z" fill="black"/>
<path d="M2.22656 2.84378H2.81241C2.97422 2.84378 3.10538 2.71262 3.10538 2.55081V1.96487C3.10538 1.80307 2.97422 1.67191 2.81241 1.67191H2.22656C2.06476 1.67191 1.93359 1.80307 1.93359 1.96487V2.55081C1.93359 2.71262 2.06476 2.84378 2.22656 2.84378Z" fill="black"/>
<path d="M2.22656 4.89456H2.81241C2.97422 4.89456 3.10538 4.7634 3.10538 4.60159V4.01566C3.10538 3.85385 2.97422 3.72269 2.81241 3.72269H2.22656C2.06476 3.72269 1.93359 3.85385 1.93359 4.01566V4.60159C1.93359 4.7634 2.06476 4.89456 2.22656 4.89456Z" fill="black"/>
<path d="M2.22656 6.94534H2.81241C2.97422 6.94534 3.10538 6.81418 3.10538 6.65237V6.06644C3.10538 5.90463 2.97422 5.77347 2.81241 5.77347H2.22656C2.06476 5.77347 1.93359 5.90463 1.93359 6.06644V6.65237C1.93359 6.81418 2.06476 6.94534 2.22656 6.94534Z" fill="black"/>
<path d="M2.22656 8.99609H2.81241C2.97422 8.99609 3.10538 8.86493 3.10538 8.70312V8.11719C3.10538 7.95538 2.97422 7.82422 2.81241 7.82422H2.22656C2.06476 7.82422 1.93359 7.95538 1.93359 8.11719V8.70312C1.93359 8.86493 2.06476 8.99609 2.22656 8.99609Z" fill="black"/>
<path d="M2.22656 11.0469H2.81241C2.97422 11.0469 3.10538 10.9157 3.10538 10.7539V10.168C3.10538 10.0062 2.97422 9.875 2.81241 9.875H2.22656C2.06476 9.875 1.93359 10.0062 1.93359 10.168V10.7539C1.93359 10.9157 2.06476 11.0469 2.22656 11.0469Z" fill="black"/>
<path d="M6.91397 1.67191H6.32812C6.16632 1.67191 6.03516 1.80307 6.03516 1.96487V2.55081C6.03516 2.71262 6.16632 2.84378 6.32812 2.84378H6.91397C7.07578 2.84378 7.20694 2.71262 7.20694 2.55081V1.96487C7.20694 1.80307 7.07578 1.67191 6.91397 1.67191Z" fill="black"/>
<path d="M6.91397 3.72266H6.32812C6.16632 3.72266 6.03516 3.85382 6.03516 4.01562V4.60156C6.03516 4.76337 6.16632 4.89453 6.32812 4.89453H6.91397C7.07578 4.89453 7.20694 4.76337 7.20694 4.60156V4.01562C7.20694 3.85385 7.07578 3.72266 6.91397 3.72266Z" fill="black"/>
<path d="M6.91397 5.77344H6.32812C6.16632 5.77344 6.03516 5.9046 6.03516 6.06641V6.65234C6.03516 6.81415 6.16632 6.94531 6.32812 6.94531H6.91397C7.07578 6.94531 7.20694 6.81415 7.20694 6.65234V6.06641C7.20694 5.90463 7.07578 5.77344 6.91397 5.77344Z" fill="black"/>
<path d="M6.91397 7.82422H6.32812C6.16632 7.82422 6.03516 7.95538 6.03516 8.11719V8.70312C6.03516 8.86493 6.16632 8.99609 6.32812 8.99609H6.91397C7.07578 8.99609 7.20694 8.86493 7.20694 8.70312V8.11719C7.20694 7.95541 7.07578 7.82422 6.91397 7.82422Z" fill="black"/>
<path d="M6.91397 9.875H6.32812C6.16632 9.875 6.03516 10.0062 6.03516 10.168V10.7539C6.03516 10.9157 6.16632 11.0469 6.32812 11.0469H6.91397C7.07578 11.0469 7.20694 10.9157 7.20694 10.7539V10.168C7.20694 10.0062 7.07578 9.875 6.91397 9.875Z" fill="black"/>
<path d="M12.3339 5.77344H11.748C11.5862 5.77344 11.4551 5.9046 11.4551 6.06641V6.65234C11.4551 6.81415 11.5862 6.94531 11.748 6.94531H12.3339C12.4957 6.94531 12.6269 6.81415 12.6269 6.65234V6.06641C12.6269 5.90463 12.4957 5.77344 12.3339 5.77344Z" fill="black"/>
<path d="M12.3339 7.82422H11.748C11.5862 7.82422 11.4551 7.95538 11.4551 8.11719V8.70312C11.4551 8.86493 11.5862 8.99609 11.748 8.99609H12.3339C12.4957 8.99609 12.6269 8.86493 12.6269 8.70312V8.11719C12.6269 7.95541 12.4957 7.82422 12.3339 7.82422Z" fill="black"/>
<path d="M12.3339 9.875H11.748C11.5862 9.875 11.4551 10.0062 11.4551 10.168V10.7539C11.4551 10.9157 11.5862 11.0469 11.748 11.0469H12.3339C12.4957 11.0469 12.6269 10.9157 12.6269 10.7539V10.168C12.6269 10.0062 12.4957 9.875 12.3339 9.875Z" fill="black"/>
<path d="M10.2831 5.77344H9.69727C9.53546 5.77344 9.4043 5.9046 9.4043 6.06641V6.65234C9.4043 6.81415 9.53546 6.94531 9.69727 6.94531H10.2831C10.4449 6.94531 10.5761 6.81415 10.5761 6.65234V6.06641C10.5761 5.90463 10.4449 5.77344 10.2831 5.77344Z" fill="black"/>
<path d="M10.2831 7.82422H9.69727C9.53546 7.82422 9.4043 7.95538 9.4043 8.11719V8.70312C9.4043 8.86493 9.53546 8.99609 9.69727 8.99609H10.2831C10.4449 8.99609 10.5761 8.86493 10.5761 8.70312V8.11719C10.5761 7.95541 10.4449 7.82422 10.2831 7.82422Z" fill="black"/>
<path d="M10.2831 9.875H9.69727C9.53546 9.875 9.4043 10.0062 9.4043 10.168V10.7539C9.4043 10.9157 9.53546 11.0469 9.69727 11.0469H10.2831C10.4449 11.0469 10.5761 10.9157 10.5761 10.7539V10.168C10.5761 10.0062 10.4449 9.875 10.2831 9.875Z" fill="black"/>
</g>
<defs>
<clipPath id="clip0">
<rect width="15" height="15" fill="white" transform="translate(0 0.5)"/>
</clipPath>
</defs>
</svg>
