<svg width="15" height="12" viewBox="0 0 15 12" fill="none" xmlns="http://www.w3.org/2000/svg">
<path fill-rule="evenodd" clip-rule="evenodd" d="M7.46498 5.93179C8.26061 6.20634 8.98984 6.65988 9.6025 7.27252C10.6649 8.33497 11.25 9.74752 11.25 11.25H10.3711C10.3711 8.633 8.24202 6.50392 5.62501 6.50392C3.008 6.50392 0.878908 8.633 0.878908 11.25H0C0 9.74752 0.585111 8.33497 1.64753 7.27252C2.2602 6.65988 2.98943 6.20634 3.78506 5.93179C2.93289 5.34488 2.37305 4.36263 2.37305 3.25196C2.37305 1.45883 3.83188 0 5.62501 0C7.41813 0 8.87697 1.45883 8.87697 3.25196C8.87697 4.36263 8.31712 5.34488 7.46498 5.93179ZM3.25196 3.25196C3.25196 4.56048 4.31651 5.62501 5.62501 5.62501C6.9335 5.62501 7.99806 4.56048 7.99806 3.25196C7.99806 1.94344 6.9335 0.878908 5.62501 0.878908C4.31651 0.878908 3.25196 1.94344 3.25196 3.25196ZM10.5 2.95313C10.2172 2.95313 9.94856 3.0153 9.70717 3.1267C9.67401 2.88743 9.62205 2.65417 9.55281 2.42846C9.84647 2.31328 10.166 2.25 10.5 2.25C11.9345 2.25 13.1016 3.41707 13.1016 4.85157C13.1016 5.74011 12.6537 6.52591 11.972 6.99544C12.6085 7.21508 13.1919 7.57791 13.682 8.06802C14.5319 8.91798 15 10.048 15 11.25H14.2969C14.2969 9.15641 12.5936 7.45314 10.5 7.45314L10.4534 7.45342C10.2454 7.13652 10.0015 6.84532 9.72737 6.58562C9.96351 6.69125 10.225 6.75001 10.5 6.75001C11.5468 6.75001 12.3984 5.89838 12.3984 4.85157C12.3984 3.80476 11.5468 2.95313 10.5 2.95313Z" fill="black"/>
</svg>
