<svg width="17" height="17" viewBox="0 0 17 17" fill="none" xmlns="http://www.w3.org/2000/svg">
<g clip-path="url(#clip0)">
<path d="M7.79167 17C6.42458 17 5.3125 15.8879 5.3125 14.5209C5.3125 14.3254 5.47117 14.1667 5.66667 14.1667C5.86217 14.1667 6.02083 14.3254 6.02083 14.5209C6.02083 15.4969 6.81488 16.2917 7.79167 16.2917C8.76846 16.2917 9.5625 15.4969 9.5625 14.5209C9.5625 14.3254 9.72117 14.1667 9.91667 14.1667C10.1122 14.1667 10.2708 14.3254 10.2708 14.5209C10.2708 15.8879 9.15875 17 7.79167 17Z" fill="white"/>
<path d="M13.0267 15.0024H1.70715C1.15649 15.0024 0.708374 14.5543 0.708374 14.0037C0.708374 13.7114 0.835552 13.435 1.05728 13.2446C1.07126 13.2326 1.08658 13.222 1.10189 13.2126C2.12198 12.327 2.70593 11.0499 2.70593 9.70225V7.67806C2.70593 5.10787 4.79738 3.01709 7.3669 3.01709C7.42017 3.01709 7.48476 3.01909 7.53803 3.02974C7.71847 3.06503 7.83566 3.24015 7.80037 3.4206C7.76575 3.60104 7.58996 3.71823 7.40885 3.68294C5.1636 3.68294 3.37179 5.47542 3.37179 7.67806V9.70225C3.37179 11.2623 2.68862 12.7379 1.49741 13.7513C1.48676 13.76 1.4761 13.7686 1.46412 13.7759C1.40685 13.8372 1.37423 13.9184 1.37423 14.0037C1.37423 14.1874 1.52404 14.3366 1.70715 14.3366H13.0267C13.2098 14.3366 13.3596 14.1874 13.3596 14.0037C13.3596 13.9184 13.327 13.8365 13.2684 13.7753C13.257 13.768 13.2471 13.76 13.2364 13.7513C12.0452 12.7379 11.362 11.2623 11.362 9.70225V8.98979C11.362 8.80601 11.5112 8.65686 11.6949 8.65686C11.8787 8.65686 12.0279 8.80601 12.0279 8.98979V9.70225C12.0279 11.0513 12.6125 12.3284 13.6332 13.214C13.6486 13.2233 13.6632 13.2333 13.6759 13.2446C13.8983 13.435 14.0254 13.7114 14.0254 14.0037C14.0254 14.5543 13.5773 15.0024 13.0267 15.0024Z" fill="white"/>
<path d="M12.75 7.08333C10.7972 7.08333 9.20837 5.49454 9.20837 3.54167C9.20837 1.58879 10.7972 0 12.75 0C14.7029 0 16.2917 1.58879 16.2917 3.54167C16.2917 5.49454 14.7029 7.08333 12.75 7.08333ZM12.75 0.708333C11.1875 0.708333 9.91671 1.97908 9.91671 3.54167C9.91671 5.10425 11.1875 6.375 12.75 6.375C14.3126 6.375 15.5834 5.10425 15.5834 3.54167C15.5834 1.97908 14.3126 0.708333 12.75 0.708333Z" fill="white"/>
</g>
<defs>
<clipPath id="clip0">
<rect width="17" height="17" fill="white"/>
</clipPath>
</defs>
</svg>
