<svg width="14" height="12" viewBox="0 0 14 12" fill="none" xmlns="http://www.w3.org/2000/svg">
<path d="M0.323629 10.9836C5.08132 10.6731 6.40978 11.9121 6.42121 11.9239C6.43766 11.9388 6.45579 11.9513 6.47508 11.9619C6.51595 11.9856 6.56164 11.9988 6.60849 12C6.64569 11.9994 6.68227 11.9915 6.71643 11.9765C6.74672 11.9631 6.7746 11.9443 6.7987 11.9209C6.7987 11.9209 8.14425 10.6673 12.8991 10.9777C13.0555 10.9874 13.19 10.8643 13.1995 10.703C13.1997 10.6968 13.2 10.691 13.2 10.6848V0.344864C13.2003 0.189573 13.0834 0.0613179 12.9332 0.0519096C8.83689 -0.214659 7.13365 0.637711 6.6 1.00096C6.06635 0.631871 4.36311 -0.217578 0.266826 0.0519096C0.116645 0.0613179 -0.000313774 0.189573 6.32391e-07 0.344864V10.6935C-0.000313774 10.8552 0.126601 10.9868 0.28328 10.987C0.289254 10.987 0.294913 10.9868 0.300887 10.9865L0.323629 10.9836ZM12.655 0.623112V10.3831C9.31384 10.2015 7.63901 10.7844 6.90665 11.1768V1.51063C7.25574 1.26169 8.74886 0.406397 12.655 0.623112ZM0.590454 0.623112C4.49369 0.409316 5.98397 1.26169 6.33883 1.50187V11.1681C5.70017 10.8254 4.35179 10.3392 1.79693 10.3392C1.41849 10.3392 1.0171 10.35 0.593284 10.3714L0.590454 0.623112Z" fill="#24292E"/>
</svg>
