<svg width="15" height="16" viewBox="0 0 15 16" fill="none" xmlns="http://www.w3.org/2000/svg">
<path d="M14.2228 3.44227L7.44863 0.539057C7.32693 0.486981 7.18909 0.486981 7.0674 0.539057L0.293225 3.44227C0.115342 3.51854 0 3.69352 0 3.88707V12.1129C0 12.3064 0.115342 12.4814 0.293285 12.5577L7.06746 15.4609L7.06782 15.4601C7.12837 15.486 7.19296 15.5 7.25816 15.5C7.3227 15.5 7.3876 15.4871 7.44869 15.4609L14.2229 12.5577C14.4007 12.4814 14.5161 12.3064 14.5161 12.1129V3.88707C14.5161 3.69352 14.4007 3.51854 14.2228 3.44227V3.44227ZM7.25804 1.5103L12.8039 3.88707L7.25804 6.26384L1.71223 3.88707L7.25804 1.5103ZM0.967739 11.7937V4.62086L6.77417 7.10934V14.2822L0.967739 11.7937ZM7.74191 14.2822V7.10934L13.5483 4.62086V11.7937L7.74191 14.2822Z" fill="#24292E"/>
</svg>
