<svg width="13" height="16" viewBox="0 0 13 16" fill="none" xmlns="http://www.w3.org/2000/svg">
<path d="M3.07564 15.3869L3.79366 14.6329C3.93726 14.4894 4.1766 14.4894 4.30824 14.6329L5.02626 15.3869C5.25363 15.6263 5.64854 15.4587 5.64854 15.1355V13.7714H11.4645C11.632 13.7714 11.8115 13.7116 11.9312 13.5798C12.1227 13.3644 12.1347 13.0534 11.979 12.8259C11.8355 12.6224 11.7396 12.3472 11.7037 12.1079C11.6678 11.8685 11.6798 11.6292 11.7516 11.3898C11.8354 11.1266 12.0867 10.8751 12.0867 10.6V1.21802C12.0867 0.823109 11.7636 0.5 11.3686 0.5H0.71802C0.323109 0.5 0 0.823109 0 1.21802V10.5882V13.0534C0 13.4482 0.323109 13.7714 0.71802 13.7714H2.45323V15.1356C2.45323 15.4587 2.84815 15.6143 3.07564 15.3869ZM2.38143 2.06768C2.38143 1.86424 2.537 1.70867 2.74044 1.70867H10.519C10.7223 1.70867 10.878 1.86424 10.878 2.06768V9.63082C10.878 9.83426 10.7223 9.98983 10.519 9.98983H2.74044C2.537 9.98983 2.38143 9.83426 2.38143 9.63082V2.06768ZM1.55571 12.5747C1.35227 12.5747 1.1967 12.419 1.1967 12.2157V11.5455C1.1967 11.3421 1.35227 11.1865 1.55571 11.1865H10.5549C10.4231 11.7011 10.4711 12.1916 10.5788 12.5748H5.64842V11.8208H2.45323V12.5748H1.55571V12.5747Z" fill="#24292E"/>
<path d="M3.67395 4.04225H4.42787C4.63131 4.04225 4.78688 3.88668 4.78688 3.68324V2.92932C4.78688 2.72588 4.63131 2.57031 4.42787 2.57031H3.67395C3.47051 2.57031 3.31494 2.72588 3.31494 2.92932V3.68324C3.31494 3.88668 3.47039 4.04225 3.67395 4.04225Z" fill="#24292E"/>
<path d="M3.67395 6.63905H4.42787C4.63131 6.63905 4.78688 6.48348 4.78688 6.28004V5.52612C4.78688 5.32269 4.63131 5.16711 4.42787 5.16711H3.67395C3.47051 5.16711 3.31494 5.32269 3.31494 5.52612V6.28004C3.31494 6.47152 3.47039 6.63905 3.67395 6.63905Z" fill="#24292E"/>
<path d="M3.67395 9.22396H4.42787C4.63131 9.22396 4.78688 9.06826 4.78688 8.86495V8.11102C4.78688 7.90759 4.63131 7.75201 4.42787 7.75201H3.67395C3.47051 7.75201 3.31494 7.90759 3.31494 8.11102V8.86495C3.31494 9.05642 3.47039 9.22396 3.67395 9.22396Z" fill="#24292E"/>
</svg>
