<svg width="14" height="14" viewBox="0 0 14 14" fill="none" xmlns="http://www.w3.org/2000/svg">
<path d="M11.22 4.375C10.0143 4.375 9.03252 3.39383 9.03252 2.1875C9.03252 0.981171 10.0143 0 11.22 0C12.4258 0 13.4075 0.981171 13.4075 2.1875C13.4075 3.39383 12.4258 4.375 11.22 4.375ZM11.22 0.875C10.4967 0.875 9.90752 1.46353 9.90752 2.1875C9.90752 2.91147 10.4967 3.5 11.22 3.5C11.9433 3.5 12.5325 2.91147 12.5325 2.1875C12.5325 1.46353 11.9433 0.875 11.22 0.875Z" fill="#24292E"/>
<path d="M11.22 14C10.0143 14 9.03252 13.0188 9.03252 11.8125C9.03252 10.6062 10.0143 9.625 11.22 9.625C12.4258 9.625 13.4075 10.6062 13.4075 11.8125C13.4075 13.0188 12.4258 14 11.22 14ZM11.22 10.5C10.4967 10.5 9.90752 11.0885 9.90752 11.8125C9.90752 12.5365 10.4967 13.125 11.22 13.125C11.9433 13.125 12.5325 12.5365 12.5325 11.8125C12.5325 11.0885 11.9433 10.5 11.22 10.5Z" fill="#24292E"/>
<path d="M2.76172 9.1875C1.55592 9.1875 0.574219 8.20633 0.574219 7C0.574219 5.79367 1.55592 4.8125 2.76172 4.8125C3.96751 4.8125 4.94922 5.79367 4.94922 7C4.94922 8.20633 3.96751 9.1875 2.76172 9.1875ZM2.76172 5.6875C2.03839 5.6875 1.44922 6.27603 1.44922 7C1.44922 7.72397 2.03839 8.3125 2.76172 8.3125C3.48505 8.3125 4.07422 7.72397 4.07422 7C4.07422 6.27603 3.48505 5.6875 2.76172 5.6875Z" fill="#24292E"/>
<path d="M4.28485 6.57413C4.13253 6.57413 3.98439 6.49477 3.90449 6.35367C3.78486 6.14368 3.85781 5.87644 4.06781 5.75691L9.48058 2.67102C9.68994 2.55032 9.95771 2.62381 10.0767 2.83444C10.1963 3.04443 10.1234 3.31157 9.91339 3.4312L4.50061 6.51698C4.43235 6.55544 4.35833 6.57413 4.28485 6.57413V6.57413Z" fill="#24292E"/>
<path d="M9.69699 11.3866C9.6235 11.3866 9.54937 11.3679 9.48112 11.3289L4.06834 8.24305C3.85835 8.12353 3.7855 7.85629 3.90502 7.6463C4.02401 7.43577 4.29125 7.36282 4.50125 7.48298L9.91392 10.5688C10.1239 10.6884 10.1969 10.9555 10.0773 11.1655C9.99681 11.3073 9.84866 11.3866 9.69699 11.3866Z" fill="#24292E"/>
</svg>
