<svg width="14" height="14" viewBox="0 0 14 14" fill="none" xmlns="http://www.w3.org/2000/svg">
<g clip-path="url(#clip0)">
<path d="M7.06249 0.5C3.43813 0.5 0.5 3.43813 0.5 7.06249C0.5 10.6868 3.43813 13.625 7.06249 13.625C10.6868 13.625 13.625 10.6868 13.625 7.06249C13.6211 3.43975 10.6853 0.503873 7.06249 0.5ZM7.06249 12.6875C3.95588 12.6875 1.43749 10.1691 1.43749 7.06249C1.43749 3.95588 3.95588 1.43749 7.06249 1.43749C10.1691 1.43749 12.6875 3.95588 12.6875 7.06249C12.6841 10.1677 10.1677 12.6841 7.06249 12.6875Z" fill="#868C94"/>
<path d="M4.71874 7.06248C5.23651 7.06248 5.65624 6.64275 5.65624 6.12499C5.65624 5.60723 5.23651 5.1875 4.71874 5.1875C4.20098 5.1875 3.78125 5.60723 3.78125 6.12499C3.78125 6.64275 4.20098 7.06248 4.71874 7.06248Z" fill="#868C94"/>
<path d="M9.40624 7.06248C9.924 7.06248 10.3437 6.64275 10.3437 6.12499C10.3437 5.60723 9.924 5.1875 9.40624 5.1875C8.88848 5.1875 8.46875 5.60723 8.46875 6.12499C8.46875 6.64275 8.88848 7.06248 9.40624 7.06248Z" fill="#868C94"/>
<path d="M8.85743 8.64662C8.70261 8.43914 8.40889 8.39646 8.20141 8.55131C8.19243 8.55801 8.18372 8.56502 8.17524 8.57235C7.51235 9.05651 6.61248 9.05651 5.94959 8.57235C5.75374 8.40305 5.45771 8.42461 5.28844 8.62047C5.11914 8.81633 5.1407 9.11235 5.33656 9.28162C5.34502 9.28896 5.35375 9.29596 5.36273 9.30266C6.36609 10.0696 7.75874 10.0696 8.7621 9.30266C8.9696 9.14781 9.01229 8.85409 8.85743 8.64662Z" fill="#868C94"/>
</g>
<defs>
<clipPath id="clip0">
<rect width="13.125" height="13.125" fill="white" transform="translate(0.5 0.5)"/>
</clipPath>
</defs>
</svg>
