<svg width="15" height="16" viewBox="0 0 15 16" fill="none" xmlns="http://www.w3.org/2000/svg">
<path d="M3.35731 15.1874C3.19297 15.1874 3.02977 15.1361 2.8905 15.0354C2.63105 14.8474 2.50986 14.5242 2.58047 14.2124L3.54546 9.96157L0.272827 7.09155C0.0322669 6.88154 -0.0596313 6.54897 0.0391336 6.24466C0.137898 5.94093 0.406612 5.72589 0.724765 5.69648L5.05485 5.30336L6.76682 1.29702C6.89305 1.00268 7.18053 0.812584 7.49994 0.812584C7.81935 0.812584 8.10684 1.00268 8.23307 1.29634L9.94503 5.30336L14.2744 5.69648C14.5933 5.7252 14.862 5.94093 14.9608 6.24466C15.0595 6.5484 14.9682 6.88154 14.7276 7.09155L11.455 9.961L12.42 14.2117C12.4907 14.5242 12.3694 14.8474 12.1101 15.0349C11.8513 15.2223 11.5063 15.2367 11.2338 15.073L7.49994 12.8417L3.7661 15.0742C3.63987 15.1492 3.49922 15.1874 3.35731 15.1874ZM7.49994 11.8804C7.64185 11.8804 7.78239 11.9186 7.90873 11.9935L11.4326 14.1011L10.5218 10.0891C10.4568 9.80352 10.5538 9.5054 10.7744 9.31221L13.8645 6.60218L9.77623 6.23093C9.48188 6.20403 9.22873 6.01898 9.11371 5.74775L7.49994 1.96698L5.88423 5.74832C5.77047 6.01772 5.51732 6.20278 5.22366 6.22967L1.13482 6.60093L4.22479 9.31096C4.44613 9.50471 4.54295 9.80226 4.47737 10.0885L3.56732 14.1004L7.09115 11.9935C7.21738 11.9186 7.35803 11.8804 7.49994 11.8804ZM5.02178 5.38084C5.02178 5.38084 5.02178 5.38153 5.02109 5.3821L5.02178 5.38084ZM9.97685 5.37901L9.97753 5.38027C9.97753 5.37958 9.97753 5.37958 9.97685 5.37901Z" fill="black"/>
</svg>
